<svg xmlns="http://www.w3.org/2000/svg" xmlns:xlink="http://www.w3.org/1999/xlink" width="19.841" height="19.841" viewBox="0 0 19.841 19.841">
  <defs>
    <clipPath id="clip-path">
      <rect id="Прямоугольник_411" data-name="Прямоугольник 411" width="6.073" height="6.073" fill="#001c42"/>
    </clipPath>
  </defs>
  <g id="Сгруппировать_1719" data-name="Сгруппировать 1719" transform="translate(0)">
    <g id="Сгруппировать_1720" data-name="Сгруппировать 1720" transform="translate(0)">
      <path id="Контур_5440" data-name="Контур 5440" d="M102.205,19.841a9.92,9.92,0,1,1,5.855-17.93A1.325,1.325,0,0,1,106.5,4.05a7.271,7.271,0,1,0-4.29,13.141,7.229,7.229,0,0,0,7.241-6.609,1.325,1.325,0,1,1,2.639.237,9.865,9.865,0,0,1-9.88,9.022" transform="translate(-92.285)" fill="#001c42"/>
      <path id="Контур_5441" data-name="Контур 5441" d="M116.365,20.718a1.325,1.325,0,0,1-.937-2.262l8.682-8.682a1.325,1.325,0,1,1,1.874,1.874L117.3,20.33a1.32,1.32,0,0,1-.937.388" transform="translate(-106.531 -5.876)" fill="#001c42"/>
      <g id="Сгруппировать_1711" data-name="Сгруппировать 1711" transform="translate(5.086 8.769)" opacity="0.7">
        <g id="Сгруппировать_1710" data-name="Сгруппировать 1710">
          <g id="Сгруппировать_1709" data-name="Сгруппировать 1709" clip-path="url(#clip-path)">
            <path id="Контур_5442" data-name="Контур 5442" d="M110.634,29.524a1.32,1.32,0,0,1-.937-.388l-3.423-3.423a1.325,1.325,0,0,1,1.874-1.874l3.423,3.423a1.325,1.325,0,0,1-.937,2.262" transform="translate(-105.886 -23.451)" fill="#001c42"/>
          </g>
        </g>
      </g>
    </g>
  </g>
</svg>
