<svg xmlns="http://www.w3.org/2000/svg" xmlns:xlink="http://www.w3.org/1999/xlink" width="19.85" height="19.846" viewBox="0 0 19.85 19.846">
  <defs>
    <clipPath id="clip-path">
      <rect id="Прямоугольник_412" data-name="Прямоугольник 412" width="7.826" height="7.826" fill="#fff"/>
    </clipPath>
  </defs>
  <g id="Сгруппировать_66755" data-name="Сгруппировать 66755" transform="translate(0 0)">
    <path id="Контур_5443" data-name="Контур 5443" d="M6.877.493A9.921,9.921,0,1,1,6.82,19.354a1.325,1.325,0,0,1,.832-2.515A7.271,7.271,0,1,0,2.835,11.53a1.325,1.325,0,0,1-2.585.586A9.867,9.867,0,0,1,6.877.493" transform="translate(0.001 -0.012)" fill="#fff"/>
    <g id="Сгруппировать_1721" data-name="Сгруппировать 1721" transform="translate(6.036 6.007)" opacity="0.8">
      <g id="Сгруппировать_1713" data-name="Сгруппировать 1713" transform="translate(0 0)">
        <g id="Сгруппировать_1712" data-name="Сгруппировать 1712" clip-path="url(#clip-path)">
          <path id="Контур_5444" data-name="Контур 5444" d="M23.58,21.639l-3.423-3.423h0L18.4,16.463a1.325,1.325,0,0,0-1.873,1.874l3.423,3.423h0l1.753,1.753a1.325,1.325,0,0,0,1.874-1.874" transform="translate(-16.142 -16.075)" fill="#fff"/>
        </g>
      </g>
    </g>
    <g id="Сгруппировать_1716" data-name="Сгруппировать 1716" transform="translate(6.036 6.007)">
      <g id="Сгруппировать_1715" data-name="Сгруппировать 1715" clip-path="url(#clip-path)">
        <path id="Контур_5445" data-name="Контур 5445" d="M23.579,16.463a1.325,1.325,0,0,0-1.874,0l-.842.842c-.012.011-.026.019-.038.031L17.4,20.759c-.012.012-.02.026-.031.039l-.842.842A1.325,1.325,0,0,0,18.4,23.513l3.423-3.423h0l1.753-1.753a1.325,1.325,0,0,0,0-1.874" transform="translate(-16.141 -16.075)" fill="#fff"/>
      </g>
    </g>
  </g>
</svg>
