<svg id="Сгруппировать_117" data-name="Сгруппировать 117" xmlns="http://www.w3.org/2000/svg" xmlns:xlink="http://www.w3.org/1999/xlink" width="219.392" height="47.804" viewBox="0 0 219.392 47.804">
  <defs>
    <clipPath id="clip-path">
      <rect id="Прямоугольник_21" data-name="Прямоугольник 21" width="219.392" height="47.804" fill="none"/>
    </clipPath>
  </defs>
  <g id="Сгруппировать_116" data-name="Сгруппировать 116" clip-path="url(#clip-path)">
    <path id="Контур_200" data-name="Контур 200" d="M30.586,7.924a14.018,14.018,0,0,0-1.526-.365,10.594,10.594,0,0,0-1.91-.151,7.533,7.533,0,0,0-1.687.173,3.076,3.076,0,0,0-1.32.633,3.114,3.114,0,0,0-.883,1.235,5.138,5.138,0,0,0-.322,1.955v2.1h6.767v1.634a2.645,2.645,0,0,1-.375,1.407,3.68,3.68,0,0,1-.987,1.052,4.532,4.532,0,0,1-1.366.665,5.171,5.171,0,0,1-1.5.226H22.939V34.323H20.555a3.566,3.566,0,0,1-2.491-.987A3.292,3.292,0,0,1,16.99,30.8V10.909a9.465,9.465,0,0,1,.461-2.737,8.107,8.107,0,0,1,1.568-2.837,9.124,9.124,0,0,1,2.858-2.223,9.442,9.442,0,0,1,4.349-.9,5.178,5.178,0,0,1,3.232.987,3.26,3.26,0,0,1,1.3,2.751V7.924Z" transform="translate(17.248 2.245)" fill="#003251"/>
    <path id="Контур_201" data-name="Контур 201" d="M37.613,12.221a14.311,14.311,0,0,0-1.481-.472,7.788,7.788,0,0,0-1.957-.216,3.885,3.885,0,0,0-3.029,1.161,5.745,5.745,0,0,0-1.052,3.887V30.223H28.462a4.788,4.788,0,0,1-3.148-.967,3.441,3.441,0,0,1-1.171-2.813V15.53a12.474,12.474,0,0,1,.486-3.458,7.974,7.974,0,0,1,1.534-2.964,7.871,7.871,0,0,1,2.729-2.064,9.307,9.307,0,0,1,4.016-.794,6.588,6.588,0,0,1,2.3.355,4.361,4.361,0,0,1,1.515.9,3.448,3.448,0,0,1,.836,1.245,3.773,3.773,0,0,1,.268,1.364v2.1Z" transform="translate(24.51 6.345)" fill="#003251"/>
    <path id="Контур_202" data-name="Контур 202" d="M52.689,15.294a4.551,4.551,0,0,1-2.644,4.5Q47.4,21.049,41.563,21.05H37.7a5.188,5.188,0,0,0,2.17,3.557,7.409,7.409,0,0,0,4.468,1.32,17.04,17.04,0,0,0,3.845-.461,7.4,7.4,0,0,0,3.414-1.771h.216V25.54a5.227,5.227,0,0,1-.421,2.106,4.113,4.113,0,0,1-1.427,1.7A7.839,7.839,0,0,1,47.3,30.491a16.756,16.756,0,0,1-4.059.419,11.588,11.588,0,0,1-4.319-.838,11.454,11.454,0,0,1-3.736-2.406,11.773,11.773,0,0,1-3.611-8.677,15.818,15.818,0,0,1,.86-5.36,11.861,11.861,0,0,1,2.4-4.069A10.3,10.3,0,0,1,38.5,6.992,12.067,12.067,0,0,1,43.194,6.1a10.185,10.185,0,0,1,3.557.633,9.458,9.458,0,0,1,3.029,1.816,8.768,8.768,0,0,1,2.114,2.9,9.044,9.044,0,0,1,.8,3.845m-5.542-.709A3.1,3.1,0,0,0,45.932,11.9a5.468,5.468,0,0,0-3.275-.881,4.607,4.607,0,0,0-1.955.419,5.372,5.372,0,0,0-1.57,1.1,4.755,4.755,0,0,0-1.028,1.6,5.884,5.884,0,0,0-.409,1.933l-.044.8h2.622q2.125,0,3.448-.129a9.26,9.26,0,0,0,2.084-.4,1.991,1.991,0,0,0,1.05-.709,1.832,1.832,0,0,0,.292-1.042" transform="translate(32.052 6.194)" fill="#003251"/>
    <path id="Контур_203" data-name="Контур 203" d="M61.066,22.9a7.231,7.231,0,0,1-2.557,5.9q-2.554,2.116-7.345,2.116a10.936,10.936,0,0,1-3.017-.4,9.453,9.453,0,0,1-2.416-1.042,5.247,5.247,0,0,1-1.6-1.483,3.088,3.088,0,0,1-.57-1.761V23.565h.216a6.283,6.283,0,0,0,1.245.846,10.184,10.184,0,0,0,1.741.732,13.878,13.878,0,0,0,2.029.484,13.217,13.217,0,0,0,2.116.171q4.3,0,4.3-2.6a1.929,1.929,0,0,0-.193-.891,1.8,1.8,0,0,0-.719-.687,5.617,5.617,0,0,0-1.493-.548q-.967-.236-2.513-.474a11.02,11.02,0,0,1-5.606-2.039A5.24,5.24,0,0,1,42.851,14.3a7.234,7.234,0,0,1,.719-3.158,7.851,7.851,0,0,1,2.041-2.62A10.086,10.086,0,0,1,48.78,6.756,12.323,12.323,0,0,1,52.925,6.1a11.281,11.281,0,0,1,3.448.461,7.34,7.34,0,0,1,2.352,1.2,4.6,4.6,0,0,1,1.342,1.642,4.114,4.114,0,0,1,.419,1.739v2.235H60.27a7.184,7.184,0,0,0-2.791-1.558,12.4,12.4,0,0,0-4-.633,6.628,6.628,0,0,0-3.726.752,2.268,2.268,0,0,0-1.02,1.89,1.544,1.544,0,0,0,.183.762,1.583,1.583,0,0,0,.685.6,5.986,5.986,0,0,0,1.429.482q.922.218,2.448.474a11.575,11.575,0,0,1,5.673,2.255,5.6,5.6,0,0,1,1.91,4.49" transform="translate(43.502 6.194)" fill="#003251"/>
    <path id="Контур_204" data-name="Контур 204" d="M72.361,34.107a4.086,4.086,0,0,1-2.92-1.01,3.841,3.841,0,0,1-1.074-2.942V20.466a7.342,7.342,0,0,0-.377-2.481,4.395,4.395,0,0,0-1.022-1.675,4.132,4.132,0,0,0-1.491-.945,5.232,5.232,0,0,0-1.816-.312,4.044,4.044,0,0,0-1.461.29,3.837,3.837,0,0,0-1.384.945,4.942,4.942,0,0,0-1.032,1.719,7.594,7.594,0,0,0-.4,2.632V34.107H57.455a4.028,4.028,0,0,1-3.1-1.052,4.135,4.135,0,0,1-.965-2.9V2.424h1.848A4.22,4.22,0,0,1,58.4,3.486a3.766,3.766,0,0,1,1.032,2.741v6.765a5.068,5.068,0,0,1,.848-1.084,9.007,9.007,0,0,1,1.213-1.01,6.792,6.792,0,0,1,1.461-.764,4.6,4.6,0,0,1,1.634-.3,9.463,9.463,0,0,1,7.162,2.652q2.545,2.654,2.545,7.724v13.9Z" transform="translate(54.205 2.461)" fill="#003251"/>
    <path id="Контур_205" data-name="Контур 205" d="M83.366,22.9a7.235,7.235,0,0,1-2.555,5.9q-2.554,2.116-7.345,2.116a10.95,10.95,0,0,1-3.019-.4,9.484,9.484,0,0,1-2.416-1.042,5.261,5.261,0,0,1-1.6-1.483,3.073,3.073,0,0,1-.57-1.761V23.565h.216a6.284,6.284,0,0,0,1.245.846,10.23,10.23,0,0,0,1.739.732,13.905,13.905,0,0,0,2.031.484,13.2,13.2,0,0,0,2.116.171q4.3,0,4.3-2.6a1.9,1.9,0,0,0-.2-.891,1.793,1.793,0,0,0-.717-.687,5.635,5.635,0,0,0-1.5-.548q-.964-.236-2.513-.474a11.028,11.028,0,0,1-5.606-2.039A5.245,5.245,0,0,1,65.153,14.3a7.232,7.232,0,0,1,.717-3.158,7.9,7.9,0,0,1,2.041-2.62A10.109,10.109,0,0,1,71.08,6.756,12.343,12.343,0,0,1,75.227,6.1a11.281,11.281,0,0,1,3.448.461,7.361,7.361,0,0,1,2.352,1.2,4.621,4.621,0,0,1,1.342,1.642,4.114,4.114,0,0,1,.419,1.739v2.235h-.216a7.184,7.184,0,0,0-2.791-1.558,12.405,12.405,0,0,0-4-.633,6.62,6.62,0,0,0-3.724.752,2.265,2.265,0,0,0-1.022,1.89,1.544,1.544,0,0,0,.183.762,1.594,1.594,0,0,0,.685.6,5.986,5.986,0,0,0,1.429.482q.925.218,2.448.474a11.567,11.567,0,0,1,5.673,2.255,5.59,5.59,0,0,1,1.91,4.49" transform="translate(66.143 6.194)" fill="#67a617"/>
    <path id="Контур_206" data-name="Контур 206" d="M75.695,10.029a10.185,10.185,0,0,1,.1-1.513,5.961,5.961,0,0,1,.29-1.161,4.083,4.083,0,0,1,.526-.987q.333-.462.806-1.042a6.362,6.362,0,0,1,1.342-1.171,2.629,2.629,0,0,1,1.429-.463h1.374V9.063h8.226V11.49a2.8,2.8,0,0,1-.858,1.868,3.425,3.425,0,0,1-2.664.947h-4.7v9.278a4.588,4.588,0,0,0,.967,3.3,3.72,3.72,0,0,0,2.771.977,8.344,8.344,0,0,0,4.252-.836h.236v2.1a3.531,3.531,0,0,1-1.3,2.9,6.1,6.1,0,0,1-3.9,1.054q-4.534,0-6.713-2.309a9.057,9.057,0,0,1-2.18-6.477Z" transform="translate(76.845 3.747)" fill="#67a617"/>
    <path id="Контур_207" data-name="Контур 207" d="M102.672,22.231a8.881,8.881,0,0,1-.655,3.46,7.687,7.687,0,0,1-1.848,2.684A8.39,8.39,0,0,1,97.336,30.1a10.285,10.285,0,0,1-3.621.613h-1.2a12.473,12.473,0,0,1-3.865-.57,9.64,9.64,0,0,1-3.019-1.556A6.7,6.7,0,0,1,83.02,23.2a7.038,7.038,0,0,1,.611-2.942,5.912,5.912,0,0,1,2-2.354,10.674,10.674,0,0,1,3.652-1.566,22.98,22.98,0,0,1,5.532-.57h2.064v-.3q0-2.515-1.237-3.438a6.468,6.468,0,0,0-3.855-.923,13.643,13.643,0,0,0-2.845.268,10.694,10.694,0,0,0-2.18.689,7.9,7.9,0,0,0-1.556.9,5.921,5.921,0,0,0-.957.871h-.216v-1.89a4.91,4.91,0,0,1,.461-2,5.326,5.326,0,0,1,1.493-1.89A7.889,7.889,0,0,1,88.667,6.67a13.219,13.219,0,0,1,3.976-.526,14.074,14.074,0,0,1,3.8.5,8.015,8.015,0,0,1,3.188,1.729,8.53,8.53,0,0,1,2.213,3.277,13.765,13.765,0,0,1,.826,5.123ZM96.917,20H94.811a16.772,16.772,0,0,0-2.793.193,5.629,5.629,0,0,0-1.781.568,2.1,2.1,0,0,0-.923.945,3.048,3.048,0,0,0-.258,1.278,2.523,2.523,0,0,0,1.052,2.18,5.1,5.1,0,0,0,3.029.764q3.778,0,3.78-3.652Z" transform="translate(84.281 6.237)" fill="#67a617"/>
    <path id="Контур_208" data-name="Контур 208" d="M107.692,12.221a14.154,14.154,0,0,0-1.481-.472,7.782,7.782,0,0,0-1.955-.216,3.879,3.879,0,0,0-3.029,1.161,5.734,5.734,0,0,0-1.052,3.887V30.223H98.541a4.8,4.8,0,0,1-3.148-.967,3.447,3.447,0,0,1-1.171-2.813V15.53a12.475,12.475,0,0,1,.486-3.458,8.034,8.034,0,0,1,1.534-2.964,7.879,7.879,0,0,1,2.731-2.064,9.3,9.3,0,0,1,4.016-.794,6.6,6.6,0,0,1,2.3.355,4.351,4.351,0,0,1,1.513.9,3.428,3.428,0,0,1,.838,1.245,3.813,3.813,0,0,1,.266,1.364v2.1Z" transform="translate(95.653 6.345)" fill="#67a617"/>
    <path id="Контур_209" data-name="Контур 209" d="M101.877,10.029a10.492,10.492,0,0,1,.095-1.513,6.108,6.108,0,0,1,.29-1.161,4.084,4.084,0,0,1,.526-.987c.222-.308.492-.655.806-1.042a6.421,6.421,0,0,1,1.344-1.171,2.618,2.618,0,0,1,1.427-.463h1.374V9.063h8.226V11.49a2.792,2.792,0,0,1-.858,1.868,3.422,3.422,0,0,1-2.664.947h-4.7v9.278a4.587,4.587,0,0,0,.969,3.3,3.72,3.72,0,0,0,2.771.977,8.349,8.349,0,0,0,4.252-.836h.234v2.1a3.536,3.536,0,0,1-1.3,2.9,6.106,6.106,0,0,1-3.9,1.054q-4.534,0-6.713-2.309a9.056,9.056,0,0,1-2.178-6.477Z" transform="translate(103.425 3.747)" fill="#67a617"/>
    <path id="Контур_210" data-name="Контур 210" d="M13.179,47.8s-14.145-18.725,2.529-37.5c0,0-14.646,11.912-10.435,25.722,0,0-7.791-4.637-4.433-16.555C4.516,6.416,23.354,0,23.354,0,19.686,15.515,30.881,29.244,11.11,36.5c0,0-.506,4.685,2.07,11.307" transform="translate(0 0)" fill="#67a617"/>
  </g>
</svg>
