<svg xmlns="http://www.w3.org/2000/svg" width="203.999" height="44.451" viewBox="0 0 203.999 44.451">
  <g id="Сгруппировать_1634" data-name="Сгруппировать 1634" transform="translate(13898.5 6093.546)">
    <path id="Контур_200" data-name="Контур 200" d="M29.633,7.523a13.034,13.034,0,0,0-1.418-.339,9.851,9.851,0,0,0-1.776-.141,7,7,0,0,0-1.568.161,2.86,2.86,0,0,0-1.227.588,2.9,2.9,0,0,0-.821,1.149,4.778,4.778,0,0,0-.3,1.818v1.956h6.292v1.52a2.46,2.46,0,0,1-.349,1.308,3.422,3.422,0,0,1-.918.978,4.214,4.214,0,0,1-1.27.618,4.808,4.808,0,0,1-1.4.21H22.522V32.07H20.3a3.316,3.316,0,0,1-2.316-.918,3.061,3.061,0,0,1-1-2.357V10.3a8.8,8.8,0,0,1,.429-2.545,7.538,7.538,0,0,1,1.458-2.638,8.484,8.484,0,0,1,2.657-2.067,8.78,8.78,0,0,1,4.044-.838,4.815,4.815,0,0,1,3.006.918,3.031,3.031,0,0,1,1.209,2.558V7.523Z" transform="translate(-13883.654 -6091.614)" fill="#fff"/>
    <path id="Контур_201" data-name="Контур 201" d="M36.668,11.8a13.307,13.307,0,0,0-1.377-.438,7.241,7.241,0,0,0-1.819-.2,3.612,3.612,0,0,0-2.816,1.079,5.342,5.342,0,0,0-.978,3.615V28.541H28.159a4.453,4.453,0,0,1-2.927-.9,3.2,3.2,0,0,1-1.089-2.616V14.879a11.6,11.6,0,0,1,.452-3.215,7.415,7.415,0,0,1,1.426-2.756,7.319,7.319,0,0,1,2.537-1.919,8.654,8.654,0,0,1,3.735-.738,6.126,6.126,0,0,1,2.138.33,4.055,4.055,0,0,1,1.409.839,3.206,3.206,0,0,1,.778,1.158,3.508,3.508,0,0,1,.249,1.269V11.8Z" transform="translate(-13877.404 -6088.085)" fill="#fff"/>
    <path id="Контур_202" data-name="Контур 202" d="M51.208,14.649a4.231,4.231,0,0,1-2.458,4.184Q46.293,20,40.862,20h-3.6a4.824,4.824,0,0,0,2.018,3.307,6.889,6.889,0,0,0,4.154,1.227,15.844,15.844,0,0,0,3.575-.429,6.877,6.877,0,0,0,3.174-1.647h.2v1.716A4.86,4.86,0,0,1,50,26.134a3.824,3.824,0,0,1-1.327,1.578,7.289,7.289,0,0,1-2.477,1.068,15.58,15.58,0,0,1-3.774.39,10.775,10.775,0,0,1-4.016-.78,10.651,10.651,0,0,1-3.474-2.237,10.947,10.947,0,0,1-3.358-8.069,14.709,14.709,0,0,1,.8-4.984A11.029,11.029,0,0,1,34.6,9.316a9.576,9.576,0,0,1,3.414-2.387A11.22,11.22,0,0,1,42.378,6.1a9.471,9.471,0,0,1,3.307.588A8.794,8.794,0,0,1,48.5,8.378a8.153,8.153,0,0,1,1.966,2.7,8.41,8.41,0,0,1,.74,3.575m-5.153-.66a2.883,2.883,0,0,0-1.13-2.5,5.084,5.084,0,0,0-3.045-.819,4.284,4.284,0,0,0-1.818.39,5,5,0,0,0-1.46,1.019,4.421,4.421,0,0,0-.956,1.488,5.471,5.471,0,0,0-.38,1.8l-.041.74h2.438q1.976,0,3.206-.12a8.611,8.611,0,0,0,1.938-.369,1.851,1.851,0,0,0,.976-.66,1.7,1.7,0,0,0,.272-.969" transform="translate(-13870.912 -6088.215)" fill="#fff"/>
    <path id="Контур_203" data-name="Контур 203" d="M59.788,21.719A6.724,6.724,0,0,1,57.411,27.2q-2.375,1.968-6.83,1.968a10.169,10.169,0,0,1-2.805-.369,8.79,8.79,0,0,1-2.247-.969,4.879,4.879,0,0,1-1.49-1.379,2.871,2.871,0,0,1-.53-1.638V22.34h.2a5.843,5.843,0,0,0,1.158.787,9.469,9.469,0,0,0,1.619.68,12.9,12.9,0,0,0,1.887.45,12.289,12.289,0,0,0,1.968.159q3.994,0,3.995-2.417a1.793,1.793,0,0,0-.18-.828,1.674,1.674,0,0,0-.669-.639,5.223,5.223,0,0,0-1.389-.51q-.9-.219-2.337-.44a10.247,10.247,0,0,1-5.213-1.9,4.872,4.872,0,0,1-1.7-3.956,6.726,6.726,0,0,1,.669-2.936,7.3,7.3,0,0,1,1.9-2.436A9.379,9.379,0,0,1,48.364,6.71,11.458,11.458,0,0,1,52.218,6.1a10.489,10.489,0,0,1,3.206.429,6.825,6.825,0,0,1,2.187,1.119,4.277,4.277,0,0,1,1.248,1.527,3.825,3.825,0,0,1,.39,1.617v2.078h-.2a6.68,6.68,0,0,0-2.6-1.448,11.532,11.532,0,0,0-3.716-.588,6.163,6.163,0,0,0-3.465.7,2.109,2.109,0,0,0-.948,1.758,1.436,1.436,0,0,0,.171.708,1.472,1.472,0,0,0,.637.56,5.566,5.566,0,0,0,1.329.448q.857.2,2.277.44a10.763,10.763,0,0,1,5.275,2.1,5.2,5.2,0,0,1,1.776,4.175" transform="translate(-13861.056 -6088.215)" fill="#fff"/>
    <path id="Контур_204" data-name="Контур 204" d="M71.03,31.884a3.8,3.8,0,0,1-2.715-.939,3.571,3.571,0,0,1-1-2.736V19.2a6.827,6.827,0,0,0-.35-2.307,4.087,4.087,0,0,0-.95-1.557,3.842,3.842,0,0,0-1.387-.879,4.865,4.865,0,0,0-1.688-.29,3.761,3.761,0,0,0-1.359.27,3.568,3.568,0,0,0-1.287.879,4.6,4.6,0,0,0-.959,1.6,7.062,7.062,0,0,0-.369,2.447V31.884h-1.8a3.745,3.745,0,0,1-2.878-.978,3.845,3.845,0,0,1-.9-2.7V2.424h1.718a3.924,3.924,0,0,1,2.934.988,3.5,3.5,0,0,1,.959,2.548v6.29a4.712,4.712,0,0,1,.789-1.008,8.375,8.375,0,0,1,1.128-.939,6.315,6.315,0,0,1,1.359-.71,4.279,4.279,0,0,1,1.52-.279,8.8,8.8,0,0,1,6.66,2.466q2.367,2.468,2.367,7.182V31.884Z" transform="translate(-13851.844 -6091.428)" fill="#fff"/>
    <path id="Контур_205" data-name="Контур 205" d="M82.089,21.719A6.728,6.728,0,0,1,79.713,27.2q-2.375,1.968-6.83,1.968a10.182,10.182,0,0,1-2.807-.369,8.819,8.819,0,0,1-2.247-.969,4.892,4.892,0,0,1-1.488-1.379,2.858,2.858,0,0,1-.53-1.638V22.34h.2a5.843,5.843,0,0,0,1.158.787,9.512,9.512,0,0,0,1.617.68,12.93,12.93,0,0,0,1.889.45,12.272,12.272,0,0,0,1.968.159q3.994,0,3.995-2.417a1.77,1.77,0,0,0-.182-.828,1.667,1.667,0,0,0-.667-.639,5.24,5.24,0,0,0-1.39-.51q-.9-.219-2.337-.44a10.254,10.254,0,0,1-5.213-1.9,4.877,4.877,0,0,1-1.7-3.956,6.724,6.724,0,0,1,.667-2.936,7.348,7.348,0,0,1,1.9-2.436A9.4,9.4,0,0,1,70.664,6.71,11.477,11.477,0,0,1,74.52,6.1a10.489,10.489,0,0,1,3.206.429,6.845,6.845,0,0,1,2.187,1.119,4.3,4.3,0,0,1,1.248,1.527,3.825,3.825,0,0,1,.39,1.617v2.078h-.2a6.68,6.68,0,0,0-2.6-1.448,11.535,11.535,0,0,0-3.718-.588,6.156,6.156,0,0,0-3.463.7,2.106,2.106,0,0,0-.95,1.758A1.435,1.435,0,0,0,70.8,14a1.483,1.483,0,0,0,.637.56,5.566,5.566,0,0,0,1.329.448q.86.2,2.277.44a10.755,10.755,0,0,1,5.275,2.1,5.2,5.2,0,0,1,1.776,4.175" transform="translate(-13841.568 -6088.215)" fill="#67a617"/>
    <path id="Контур_206" data-name="Контур 206" d="M75.7,9.584a9.471,9.471,0,0,1,.09-1.407,5.543,5.543,0,0,1,.27-1.079,3.8,3.8,0,0,1,.489-.918q.309-.43.75-.969a5.916,5.916,0,0,1,1.248-1.089,2.445,2.445,0,0,1,1.329-.431h1.278v5H88.8v2.256A2.605,2.605,0,0,1,88,12.68a3.185,3.185,0,0,1-2.477.881H81.148v8.627a4.266,4.266,0,0,0,.9,3.066,3.459,3.459,0,0,0,2.577.909,7.759,7.759,0,0,0,3.954-.778H88.8V27.34a3.284,3.284,0,0,1-1.207,2.7,5.672,5.672,0,0,1-3.626.98q-4.216,0-6.242-2.147A8.422,8.422,0,0,1,75.7,22.847Z" transform="translate(-13832.355 -6090.321)" fill="#67a617"/>
    <path id="Контур_207" data-name="Контур 207" d="M101.294,21.1a8.258,8.258,0,0,1-.609,3.217,7.148,7.148,0,0,1-1.718,2.5,7.8,7.8,0,0,1-2.635,1.608,9.563,9.563,0,0,1-3.367.57H91.846a11.6,11.6,0,0,1-3.594-.53,8.964,8.964,0,0,1-2.807-1.447A6.232,6.232,0,0,1,83.02,22a6.544,6.544,0,0,1,.568-2.736,5.5,5.5,0,0,1,1.857-2.189,9.925,9.925,0,0,1,3.4-1.456,21.368,21.368,0,0,1,5.144-.53H95.9v-.279q0-2.339-1.151-3.2a6.015,6.015,0,0,0-3.585-.858,12.686,12.686,0,0,0-2.646.249,9.944,9.944,0,0,0-2.027.641,7.345,7.345,0,0,0-1.447.838,5.505,5.505,0,0,0-.89.809h-.2V11.537a4.565,4.565,0,0,1,.429-1.859A4.952,4.952,0,0,1,85.775,7.92a7.336,7.336,0,0,1,2.5-1.287,12.292,12.292,0,0,1,3.7-.489,13.087,13.087,0,0,1,3.536.468A7.453,7.453,0,0,1,98.468,8.22a7.932,7.932,0,0,1,2.057,3.047,12.8,12.8,0,0,1,.768,4.763Zm-5.352-2.076H93.984a15.6,15.6,0,0,0-2.6.18,5.234,5.234,0,0,0-1.656.528,1.953,1.953,0,0,0-.858.879,2.834,2.834,0,0,0-.24,1.188,2.346,2.346,0,0,0,.978,2.027,4.742,4.742,0,0,0,2.816.71q3.513,0,3.515-3.4Z" transform="translate(-13825.956 -6088.177)" fill="#67a617"/>
    <path id="Контур_208" data-name="Контур 208" d="M106.747,11.8a13.162,13.162,0,0,0-1.377-.438,7.236,7.236,0,0,0-1.818-.2,3.607,3.607,0,0,0-2.816,1.079,5.332,5.332,0,0,0-.978,3.615V28.541h-1.52a4.459,4.459,0,0,1-2.927-.9,3.205,3.205,0,0,1-1.089-2.616V14.879a11.6,11.6,0,0,1,.452-3.215A7.47,7.47,0,0,1,96.1,8.907a7.326,7.326,0,0,1,2.539-1.919,8.648,8.648,0,0,1,3.735-.738,6.14,6.14,0,0,1,2.138.33,4.046,4.046,0,0,1,1.407.839,3.188,3.188,0,0,1,.779,1.158,3.545,3.545,0,0,1,.247,1.269V11.8Z" transform="translate(-13816.167 -6088.085)" fill="#67a617"/>
    <path id="Контур_209" data-name="Контур 209" d="M101.877,9.584a9.756,9.756,0,0,1,.088-1.407,5.68,5.68,0,0,1,.27-1.079,3.8,3.8,0,0,1,.489-.918c.206-.287.457-.609.75-.969a5.97,5.97,0,0,1,1.25-1.089,2.434,2.434,0,0,1,1.327-.431h1.278v5h7.649v2.256a2.6,2.6,0,0,1-.8,1.737,3.182,3.182,0,0,1-2.477.881h-4.373v8.627a4.266,4.266,0,0,0,.9,3.066,3.459,3.459,0,0,0,2.577.909,7.764,7.764,0,0,0,3.954-.778h.217V27.34a3.288,3.288,0,0,1-1.2,2.7,5.677,5.677,0,0,1-3.628.98q-4.216,0-6.242-2.147a8.421,8.421,0,0,1-2.026-6.022Z" transform="translate(-13809.478 -6090.321)" fill="#67a617"/>
    <path id="Контур_210" data-name="Контур 210" d="M12.255,44.451S-.9,27.039,14.606,9.583c0,0-13.619,11.076-9.7,23.917,0,0-7.244-4.312-4.122-15.393C4.2,5.966,21.716,0,21.716,0c-3.41,14.427,7,27.193-11.385,33.937a24.564,24.564,0,0,0,1.924,10.514" transform="translate(-13898.5 -6093.546)" fill="#67a617"/>
  </g>
</svg>
